<?xml version="1.0" encoding="utf-8"?>
<!-- Generator: Adobe Illustrator 24.0.1, SVG Export Plug-In . SVG Version: 6.00 Build 0)  -->
<svg version="1.1"
	 id="svg8" inkscape:version="1.0 (4035a4fb49, 2020-05-01)" sodipodi:docname="logo_b.svg" xmlns:cc="http://creativecommons.org/ns#" xmlns:dc="http://purl.org/dc/elements/1.1/" xmlns:inkscape="http://www.inkscape.org/namespaces/inkscape" xmlns:rdf="http://www.w3.org/1999/02/22-rdf-syntax-ns#" xmlns:sodipodi="http://sodipodi.sourceforge.net/DTD/sodipodi-0.dtd" xmlns:svg="http://www.w3.org/2000/svg"
	 xmlns="http://www.w3.org/2000/svg" xmlns:xlink="http://www.w3.org/1999/xlink" x="0px" y="0px" viewBox="0 0 519.9 121.6"
	 style="enable-background:new 0 0 519.9 121.6;" xml:space="preserve">
<style type="text/css">
	.st0{fill:#FFFFFF;}
</style>
<sodipodi:namedview  bordercolor="#666666" borderopacity="1.0" id="base" inkscape:bbox-nodes="true" inkscape:bbox-paths="true" inkscape:current-layer="layer1" inkscape:cx="391.62345" inkscape:cy="444.07281" inkscape:document-rotation="0" inkscape:document-units="mm" inkscape:object-paths="true" inkscape:pageopacity="0.0" inkscape:pageshadow="2" inkscape:snap-bbox="true" inkscape:snap-bbox-edge-midpoints="true" inkscape:snap-bbox-midpoints="true" inkscape:snap-center="true" inkscape:snap-global="false" inkscape:snap-intersection-paths="true" inkscape:snap-midpoints="true" inkscape:snap-object-midpoints="true" inkscape:snap-page="true" inkscape:snap-smooth-nodes="true" inkscape:snap-text-baseline="true" inkscape:window-height="837" inkscape:window-maximized="1" inkscape:window-width="1600" inkscape:window-x="-8" inkscape:window-y="-8" inkscape:zoom="0.35355339" pagecolor="#ffffff" showgrid="false">
	</sodipodi:namedview>
<g id="layer1" inkscape:groupmode="layer" inkscape:label="Layer 1">
	<g id="g871" transform="matrix(3.8378807,0,0,3.8378807,-237.42029,-687.86952)">
		<path id="path4848" inkscape:connector-curvature="0" class="st0" d="M61.9,179.2v31.7h10.5v-7.8l2.4-2.7l7.9,10.5h12.4
			l-13.3-17.8l11.4-12.5l9.7,30.2h11.5l5.4-16.9l5.1,16.9h9.6l13.9-31.7h-1.8h-10.1l-5.8,18.2l-5.5-18.2H115l-5.8,18l-5.5-18h-9.2
			h-1.8h-9.9l-10.4,11.5v-11.5H61.9z M158.7,179.2l13.9,31.7h6.9c3.5,0,6.6-0.6,9.3-1.9c2.7-1.3,4.8-3.1,6.3-5.5
			c1.5-2.4,2.3-5.2,2.3-8.4c0-3.2-0.8-6-2.3-8.4c-1.5-2.4-3.6-4.2-6.3-5.5c-2.7-1.3-5.8-1.9-9.3-1.9h-15.6L158.7,179.2z
			 M174.5,187.6h4.5c2.3,0,4.1,0.7,5.5,2c1.4,1.3,2.1,3.1,2.1,5.5s-0.7,4.2-2.1,5.6c-1.4,1.3-3.2,1.9-5.5,1.9h-4.5V187.6z
			 M153.3,189.7l-3.1,8h6.2L153.3,189.7z M147.3,205.4l-2.1,5.5h16.3l-2.1-5.5H147.3z"/>
	</g>
</g>
</svg>
